<svg xmlns="http://www.w3.org/2000/svg" viewBox="0 0 128 128" width="128" height="128">
  <!-- Option 3: Rounded Square — macOS app icon style, dark bg with bars -->
  <rect x="4" y="4" width="120" height="120" rx="28" fill="#141414"/>
  <rect x="4" y="4" width="120" height="120" rx="28" fill="none" stroke="rgba(255,255,255,0.06)" stroke-width="1"/>
  <g transform="translate(27, 64)">
    <rect x="0"  y="-3"  width="4" height="6"  rx="2" fill="#ff8c00" opacity="0.5"/>
    <rect x="7"  y="-8"  width="4" height="16" rx="2" fill="#ff8c00" opacity="0.6"/>
    <rect x="14" y="-15" width="4" height="30" rx="2" fill="#ff8c00" opacity="0.7"/>
    <rect x="21" y="-22" width="4" height="44" rx="2" fill="#ff8c00" opacity="0.8"/>
    <rect x="28" y="-29" width="4" height="58" rx="2" fill="#ff8c00" opacity="0.9"/>
    <rect x="35" y="-33" width="4" height="66" rx="2" fill="#ff8c00" opacity="1"/>
    <rect x="42" y="-29" width="4" height="58" rx="2" fill="#ff8c00" opacity="0.9"/>
    <rect x="49" y="-22" width="4" height="44" rx="2" fill="#ff8c00" opacity="0.8"/>
    <rect x="56" y="-15" width="4" height="30" rx="2" fill="#ff8c00" opacity="0.7"/>
    <rect x="63" y="-8"  width="4" height="16" rx="2" fill="#ff8c00" opacity="0.6"/>
    <rect x="70" y="-3"  width="4" height="6"  rx="2" fill="#ff8c00" opacity="0.5"/>
  </g>
</svg>