<svg xmlns="http://www.w3.org/2000/svg" viewBox="0 0 128 128" width="128" height="128">
  <!-- Option 2: Pill Container — the actual overlay shape with bars inside -->
  <!-- Dark rounded pill background, orange bars, mimics the real overlay -->
  <rect x="8" y="36" width="112" height="56" rx="28" fill="#141414"/>
  <rect x="8" y="36" width="112" height="56" rx="28" fill="none" stroke="rgba(255,255,255,0.08)" stroke-width="1"/>
  <g transform="translate(27, 64)">
    <rect x="0"  y="-3"  width="4" height="6"  rx="2" fill="#ff8c00" opacity="0.5"/>
    <rect x="7"  y="-7"  width="4" height="14" rx="2" fill="#ff8c00" opacity="0.6"/>
    <rect x="14" y="-12" width="4" height="24" rx="2" fill="#ff8c00" opacity="0.7"/>
    <rect x="21" y="-17" width="4" height="34" rx="2" fill="#ff8c00" opacity="0.8"/>
    <rect x="28" y="-22" width="4" height="44" rx="2" fill="#ff8c00" opacity="0.9"/>
    <rect x="35" y="-24" width="4" height="48" rx="2" fill="#ff8c00" opacity="1"/>
    <rect x="42" y="-22" width="4" height="44" rx="2" fill="#ff8c00" opacity="0.9"/>
    <rect x="49" y="-17" width="4" height="34" rx="2" fill="#ff8c00" opacity="0.8"/>
    <rect x="56" y="-12" width="4" height="24" rx="2" fill="#ff8c00" opacity="0.7"/>
    <rect x="63" y="-7"  width="4" height="14" rx="2" fill="#ff8c00" opacity="0.6"/>
    <rect x="70" y="-3"  width="4" height="6"  rx="2" fill="#ff8c00" opacity="0.5"/>
  </g>
</svg>